<svg xmlns="http://www.w3.org/2000/svg" viewBox="0 0 147.4 135.7" xml:space="preserve"><path d="M146.3 134.7c-.7.7-1.5 1-2.4 1-.9 0-1.7-.3-2.4-1s-1-1.5-1-2.4c0-.9.3-1.7 1-2.4s1.4-1 2.4-1c.9 0 1.7.3 2.4 1s1 1.4 1 2.4c0 .9-.3 1.7-1 2.4zm-4.4-4.5c-.6.6-.8 1.3-.8 2 0 .8.3 1.5.8 2.1.6.6 1.3.9 2.1.9s1.5-.3 2.1-.9c.6-.6.8-1.3.8-2.1s-.3-1.5-.8-2c-.6-.6-1.3-.9-2.1-.9-.9.1-1.5.4-2.1.9zm2 .2c.5 0 .8 0 1 .1.4.2.6.5.6.9 0 .3-.1.6-.4.7-.1.1-.3.1-.5.2.3 0 .5.2.6.4.1.2.2.4.2.6v.8h-.6v-.4c0-.4-.1-.7-.4-.8-.1-.1-.4-.1-.7-.1h-.5v1.4h-.7v-3.7h1.4zm.7.6c-.2-.1-.4-.1-.8-.1h-.6v1.3h.6c.3 0 .5 0 .6-.1.3-.1.4-.3.4-.6 0-.2-.1-.4-.2-.5z"/><path d="M26.1 0C11.7 0 0 11.4 0 25.3v85c0 14.2 11.4 25.2 25.9 25.2h95.6c14.5 0 25.9-11.1 25.9-25.2v-85c0-14.2-11.3-25.3-25.6-25.3H26.1zM2.9 110.3v-85c0-12.6 10.2-22.4 23.2-22.4h95.6c12.7 0 22.7 9.9 22.7 22.4v85c0 12.5-10.1 22.3-23 22.3H25.9c-12.9 0-23-9.8-23-22.3z"/><path d="M126.5 80.2H108l-2.9-18.4S95 78.8 94.3 80.1h-2c-1.2-2.1-1.7-5.2-1.7-7.1 0-3.1.2-6.2.2-10.2 0-5.3-1.6-8.1-5.7-9.1v-.2c8.8-1.2 12.8-7.1 12.8-15.3 0-11.7-7.8-14.2-18-14.2H52.5L40.9 78.8h14.6l4.2-20h9.7c5.2 0 7.3 2.5 7.3 7.4 0 3.7-.4 6.6-.4 9.4 0 1 .2 3.5 1 4.4s9.5 10 10.6 11.1l-9.1 19.5s18-10.7 19.4-11.5c1.3 1 14.4 11.1 14.4 11.1s-2.5-16.9-2.7-18.4c1.2-.8 16.6-11.6 16.6-11.6zM73.8 48.6H62.2L65 35.4h10.8c3.8 0 7.8 1 7.8 5.7-.1 5.8-4.6 7.5-9.8 7.5zm24.5 47.3s-9 5.4-13.5 8c2.1-4.5 6.2-13.3 6.2-13.3s-5-5.3-7.5-7.9h12.3s5.4-9.1 7.8-13.2c.7 4.3 2.1 13.3 2.1 13.3h12.2c-3.9 2.7-11 7.7-11 7.7s1.4 9.3 2 13.5c-3.3-2.4-10.6-8.1-10.6-8.1z"/></svg>