<svg xmlns="http://www.w3.org/2000/svg" viewBox="0 0 129.1 128.3" xml:space="preserve"><path d="M116.2 100.3c7-10.1 11.3-22.3 11.3-35.6C127.5 30 99.4 2 64.8 2S2 29.9 2 64.5 30.1 127 64.8 127H125l-8.8-26.7z"/><g fill="#FFF"><path d="M89.4 39.5c0 5.4-4.4 9.7-9.7 9.7-5.4 0-9.7-4.4-9.7-9.7 0-5.4 4.4-9.7 9.7-9.7 5.4-.1 9.7 4.3 9.7 9.7zM95 69.4c0-13.8-13.6-18.2-22.5-13.6 3.5 4.3 5.5 10 5.5 17.1V86h17V69.4zM68.8 60c-3.7-4.7-9.4-7.1-15.2-7.1-5.7 0-11.4 2.4-15.2 6.9-2.7 3.2-4.5 7.6-4.5 13.1V95h39V72.9c.1-5.5-1.5-9.7-4.1-12.9zM66 36.7c0 6.9-5.6 12.4-12.4 12.4-6.9 0-12.4-5.6-12.4-12.4 0-6.9 5.6-12.5 12.4-12.5 6.9.1 12.4 5.7 12.4 12.5z"/></g></svg>